<?xml version="1.0" encoding="UTF-8"?>
<!-- Generator: Adobe Illustrator 15.0.2, SVG Export Plug-In . SVG Version: 6.00 Build 0)  -->
<!DOCTYPE svg PUBLIC "-//W3C//DTD SVG 1.1//EN" "http://www.w3.org/Graphics/SVG/1.1/DTD/svg11.dtd">
<svg xmlns="http://www.w3.org/2000/svg" xmlns:xlink="http://www.w3.org/1999/xlink" version="1.1" id="Layer_1" x="0px" y="0px" width="512px" height="585.143px" viewBox="0 0 512 585.143" enable-background="new 0 0 512 585.143" xml:space="preserve">
<g>
	<path d="M256,0C153.455,0,70.33,83.125,70.33,185.67v33.759H36.571C16.384,219.429,0,235.812,0,256v292.571   c0,20.179,16.384,36.571,36.571,36.571h438.857c20.179,0,36.571-16.393,36.571-36.571V256c0-20.188-16.393-36.571-36.571-36.571   h-33.75V185.67C441.679,83.125,358.536,0,256,0z M143.474,185.67c0-62.062,50.464-112.527,112.526-112.527   c62.071,0,112.536,50.465,112.536,112.527v33.759H143.474V185.67z M256,475.429c-40.411,0-73.143-32.732-73.143-73.143   c0-40.411,32.731-73.144,73.143-73.144s73.143,32.732,73.143,73.144C329.143,442.696,296.411,475.429,256,475.429z" fill="#FFFFFF"/>
</g>
</svg>
